HIERARCHY
ROOT Hips
{
	OFFSET 0.000000 1.471914 24.280096
	CHANNELS 6 Xposition Yposition Zposition Xrotation Yrotation Zrotation
	JOINT Spine
	{
		OFFSET 0.000000 0.900110 1.860670
		CHANNELS 6 Xposition Yposition Zposition Xrotation Yrotation Zrotation
		JOINT Spine1
		{
			OFFSET 0.000000 0.400320 2.270309
			CHANNELS 6 Xposition Yposition Zposition Xrotation Yrotation Zrotation
			JOINT Spine2
			{
				OFFSET 0.000000 0.200920 2.296560
				CHANNELS 6 Xposition Yposition Zposition Xrotation Yrotation Zrotation
				JOINT Spine3
				{
					OFFSET 0.000000 0.000000 2.305330
					CHANNELS 6 Xposition Yposition Zposition Xrotation Yrotation Zrotation
					JOINT Neck
					{
						OFFSET 0.000000 -0.864490 6.051487
						CHANNELS 6 Xposition Yposition Zposition Xrotation Yrotation Zrotation
						JOINT Head
						{
							OFFSET 0.000000 -0.550429 3.121674
							CHANNELS 6 Xposition Yposition Zposition Xrotation Yrotation Zrotation
							End Site
							{
								OFFSET 0.000000 0.000000 3.731750
							}
						}
					}
					JOINT RightShoulder
					{
						OFFSET -0.788280 -1.313800 4.256718
						CHANNELS 6 Xposition Yposition Zposition Xrotation Yrotation Zrotation
						JOINT RightArm
						{
							OFFSET -3.915130 0.000000 0.000000
							CHANNELS 6 Xposition Yposition Zposition Xrotation Yrotation Zrotation
							JOINT RightForeArm
							{
								OFFSET -6.914910 0.000000 0.000000
								CHANNELS 6 Xposition Yposition Zposition Xrotation Yrotation Zrotation
								JOINT RightHand
								{
									OFFSET -6.096219 0.000000 0.000000
									CHANNELS 6 Xposition Yposition Zposition Xrotation Yrotation Zrotation
									JOINT RightHandEnd
									{
										OFFSET -1.749950 0.000000 0.000000
										CHANNELS 6 Xposition Yposition Zposition Xrotation Yrotation Zrotation
										End Site
										{
											OFFSET -1.749950 0.000000 0.000000
										}
									}
									JOINT RightHandThumb1
									{
										OFFSET -0.699980 -1.166630 -0.466648
										CHANNELS 6 Xposition Yposition Zposition Xrotation Yrotation Zrotation
										End Site
										{
											OFFSET -1.690319 -0.452920 0.000000
										}
									}
								}
							}
						}
					}
					JOINT LeftShoulder
					{
						OFFSET 0.788280 -1.313800 4.256718
						CHANNELS 6 Xposition Yposition Zposition Xrotation Yrotation Zrotation
						JOINT LeftArm
						{
							OFFSET 3.915130 0.000000 0.000000
							CHANNELS 6 Xposition Yposition Zposition Xrotation Yrotation Zrotation
							JOINT LeftForeArm
							{
								OFFSET 6.914910 0.000000 0.000000
								CHANNELS 6 Xposition Yposition Zposition Xrotation Yrotation Zrotation
								JOINT LeftHand
								{
									OFFSET 6.096219 0.000000 0.000000
									CHANNELS 6 Xposition Yposition Zposition Xrotation Yrotation Zrotation
									JOINT LeftHandEnd
									{
										OFFSET 1.749950 0.000000 0.000000
										CHANNELS 6 Xposition Yposition Zposition Xrotation Yrotation Zrotation
										End Site
										{
											OFFSET 1.749950 0.000000 0.000000
										}
									}
									JOINT LeftHandThumb1
									{
										OFFSET 0.699980 -1.166630 -0.466648
										CHANNELS 6 Xposition Yposition Zposition Xrotation Yrotation Zrotation
										End Site
										{
											OFFSET 1.690319 -0.452920 0.000000
										}
									}
								}
							}
						}
					}
				}
			}
		}
	}
	JOINT RightUpLeg
	{
		OFFSET -2.338570 -0.252550 -0.551512
		CHANNELS 6 Xposition Yposition Zposition Xrotation Yrotation Zrotation
		JOINT RightLeg
		{
			OFFSET 0.000000 0.000000 -10.744959
			CHANNELS 6 Xposition Yposition Zposition Xrotation Yrotation Zrotation
			JOINT RightFoot
			{
				OFFSET 0.000000 -0.000001 -10.930849
				CHANNELS 6 Xposition Yposition Zposition Xrotation Yrotation Zrotation
				JOINT RightToeBase
				{
					OFFSET 0.000000 -4.087269 -1.487650
					CHANNELS 6 Xposition Yposition Zposition Xrotation Yrotation Zrotation
					End Site
					{
						OFFSET 0.000000 -1.891870 0.000000
					}
				}
			}
		}
	}
	JOINT LeftUpLeg
	{
		OFFSET 2.338570 -0.252550 -0.551512
		CHANNELS 6 Xposition Yposition Zposition Xrotation Yrotation Zrotation
		JOINT LeftLeg
		{
			OFFSET 0.000000 0.000000 -10.744959
			CHANNELS 6 Xposition Yposition Zposition Xrotation Yrotation Zrotation
			JOINT LeftFoot
			{
				OFFSET 0.000000 -0.000001 -10.930849
				CHANNELS 6 Xposition Yposition Zposition Xrotation Yrotation Zrotation
				JOINT LeftToeBase
				{
					OFFSET 0.000000 -4.087269 -1.487650
					CHANNELS 6 Xposition Yposition Zposition Xrotation Yrotation Zrotation
					End Site
					{
						OFFSET 0.000000 -1.891870 0.000000
					}
				}
			}
		}
	}
}
MOTION
Frames: 4
Frame Time: 0.041667
0.000025 26.568258 41.034111 -7.359899 2.054303 -27.062581 0.000004 0.900103 1.860648 26.085394 3.328318 1.163576 0.000002 0.400325 2.270306 -0.331907 -2.697506 0.056708 0.000004 0.200922 2.296557 0.326102 2.571592 9.603704 0.000003 0.000020 2.305349 0.029687 0.122299 -5.386553 -0.000003 -0.864485 6.051446 2.329593 -4.981284 -202.929278 -0.000009 -0.550436 3.121691 4.565580 1.139594 -17.069845 -0.788276 -1.313806 4.256706 144.938895 46.317709 0.480499 -3.915133 0.000009 -0.000015 -4.118508 -8.118584 2.414619 -6.914915 0.000001 -0.000025 4.498793 7.915171 -83.791716 -6.096231 0.000023 -0.000007 -0.000037 -0.000020 0.000020 -1.749952 0.000008 -0.000004 -0.000003 0.000000 -0.000001 -0.699971 -1.166625 -0.466665 -0.000004 0.000005 -0.000007 0.788295 -1.313802 4.256711 -140.901653 -59.408685 45.481775 3.915140 0.000000 0.000003 -19.751136 14.131446 2.822371 6.914921 0.000006 0.000002 19.667794 -14.249527 127.319999 6.096241 0.000014 -0.000004 -0.000025 0.000029 -0.000017 1.749964 -0.000025 -0.000007 0.000001 -0.000000 0.000001 0.699984 -1.166611 -0.466660 0.000002 0.000004 0.000004 -2.338568 -0.252537 -0.551512 11.150256 8.338821 0.519560 0.000011 0.000006 -10.744967 4.601735 -1.668483 0.884012 -0.000004 -0.000001 -10.930839 -0.000012 -0.000006 0.000005 -0.000011 -4.087268 -1.487631 4.424509 0.000003 -0.000000 2.338569 -0.252551 -0.551488 12.233764 -8.528126 0.559690 -0.000011 -0.000016 -10.744945 3.771732 5.230487 -0.392210 0.000009 0.000002 -10.930858 -0.000019 -0.000005 -0.000004 0.000007 -4.087268 -1.487649 -2.493405 0.000001 -0.000003 
0.000047 26.568233 41.034103 -7.087291 1.982529 -27.465133 0.000002 0.900104 1.860647 24.809812 5.376236 0.969984 0.000001 0.400326 2.270308 -0.331904 -2.697507 0.056709 0.000001 0.200926 2.296557 0.326102 2.571592 9.603700 0.000002 0.000018 2.305349 0.029695 0.122297 -5.966980 -0.000004 -0.864479 6.051451 1.373944 -7.673462 -204.454323 -0.000005 -0.550436 3.121695 4.565578 1.139595 -17.069847 -0.788276 -1.313803 4.256711 139.032298 45.593828 4.423718 -3.915135 0.000010 -0.000011 -4.118508 -8.118580 2.414621 -6.914913 -0.000001 -0.000013 4.498786 7.915166 -75.310403 -6.096230 0.000024 0.000003 -0.000032 -0.000021 0.000019 -1.749955 0.000013 -0.000005 0.000003 -0.000004 0.000003 -0.699972 -1.166621 -0.466666 -0.000004 0.000004 -0.000004 0.788296 -1.313797 4.256710 -145.230080 -58.848322 38.379683 3.915145 0.000001 0.000007 -19.751133 14.131451 2.822371 6.914917 0.000008 -0.000008 19.667788 -14.249511 108.954256 6.096242 0.000013 -0.000006 -0.000023 0.000034 -0.000016 1.749958 -0.000021 -0.000003 -0.000003 0.000003 -0.000002 0.699980 -1.166613 -0.466656 -0.000001 0.000001 0.000004 -2.338571 -0.252536 -0.551517 11.591620 7.941067 0.468821 0.000012 0.000001 -10.744975 3.987751 -1.458109 0.714265 -0.000004 0.000005 -10.930835 -0.000012 -0.000006 0.000003 -0.000010 -4.087270 -1.487628 4.424511 0.000003 -0.000002 2.338568 -0.252550 -0.551494 12.531311 -8.054659 0.498714 -0.000010 -0.000011 -10.744946 3.499384 3.684638 -0.355808 0.000009 0.000004 -10.930857 -0.000019 -0.000009 -0.000003 0.000005 -4.087267 -1.487650 -2.493407 0.000000 0.000002 
0.000054 26.568243 41.034103 -7.255659 1.837989 -28.241596 0.000004 0.900100 1.860649 23.094811 7.550696 0.913633 0.000000 0.400322 2.270318 -0.331906 -2.697507 0.056707 0.000003 0.200925 2.296555 0.326100 2.571591 9.603702 0.000003 0.000019 2.305339 0.029697 0.122301 -4.740643 -0.000004 -0.864487 6.051448 0.208185 -8.207042 -208.883058 -0.000009 -0.550431 3.121688 4.565581 1.139597 -17.069843 -0.788278 -1.313808 4.256709 142.143231 42.820307 -0.513807 -3.915131 0.000010 -0.000011 -4.118509 -8.118582 2.414620 -6.914916 0.000001 -0.000008 4.498783 7.915176 -67.956216 -6.096228 0.000027 -0.000008 -0.000036 -0.000025 0.000026 -1.749952 0.000011 -0.000009 0.000002 -0.000002 -0.000001 -0.699968 -1.166624 -0.466666 -0.000004 -0.000000 -0.000008 0.788295 -1.313805 4.256704 -145.524461 -59.517285 32.512021 3.915141 0.000001 0.000003 -19.751136 14.131449 2.822369 6.914914 0.000006 -0.000004 19.667794 -14.249519 88.687035 6.096244 0.000016 0.000003 -0.000022 0.000028 -0.000019 1.749958 -0.000019 -0.000007 -0.000002 -0.000000 0.000002 0.699981 -1.166612 -0.466657 0.000001 0.000002 0.000003 -2.338570 -0.252538 -0.551507 12.180419 7.940271 0.493087 0.000014 -0.000000 -10.744972 2.909773 -1.591075 0.521131 -0.000003 0.000003 -10.930838 -0.000017 -0.000006 0.000003 -0.000011 -4.087268 -1.487635 4.424508 0.000001 -0.000001 2.338569 -0.252551 -0.551488 13.001535 -7.506259 0.517659 -0.000012 -0.000011 -10.744952 3.836922 2.001728 -0.353907 0.000007 0.000002 -10.930861 -0.000022 -0.000005 -0.000001 0.000008 -4.087268 -1.487646 -2.493403 0.000002 -0.000000 
0.000064 26.568262 41.034180 -7.672660 1.876399 -29.997344 0.000002 0.900106 1.860641 21.858892 10.019148 0.569290 0.000002 0.400321 2.270314 -0.331908 -2.697507 0.056706 0.000002 0.200928 2.296559 0.326101 2.571591 9.603704 0.000002 0.000012 2.305336 0.029698 0.122302 -3.472170 -0.000002 -0.864487 6.051443 -0.643876 -8.692032 -211.691632 -0.000005 -0.550434 3.121688 4.565578 1.139598 -17.069847 -0.788275 -1.313812 4.256706 146.654680 37.767903 -7.146493 -3.915134 0.000007 -0.000015 -4.118508 -8.118578 2.414623 -6.914911 0.000003 -0.000013 4.498779 7.915170 -62.044141 -6.096230 0.000020 -0.000002 -0.000042 -0.000025 0.000026 -1.749951 0.000012 0.000004 0.000001 -0.000004 0.000002 -0.699968 -1.166623 -0.466658 -0.000004 -0.000002 -0.000004 0.788299 -1.313806 4.256706 -157.918727 -63.226679 16.830534 3.915150 0.000003 0.000007 -19.751131 14.131447 2.822371 6.914921 0.000007 -0.000004 19.667791 -14.249524 68.683153 6.096239 0.000013 -0.000007 -0.000020 0.000030 -0.000020 1.749953 -0.000027 -0.000003 -0.000003 0.000002 0.000001 0.699978 -1.166612 -0.466655 -0.000001 0.000002 0.000006 -2.338571 -0.252534 -0.551517 11.951053 8.336958 0.316347 0.000014 0.000005 -10.744967 2.891957 -1.229765 0.498813 -0.000000 -0.000002 -10.930841 -0.000017 -0.000005 0.000002 -0.000011 -4.087267 -1.487633 4.424510 0.000001 -0.000002 2.338567 -0.252549 -0.551499 13.933317 -6.314007 0.360131 -0.000011 -0.000013 -10.744947 4.006402 0.163118 -0.341662 0.000006 0.000003 -10.930861 -0.000019 -0.000005 -0.000001 0.000004 -4.087268 -1.487647 -2.493409 0.000003 0.000006 
